<svg width="217" height="1035" viewBox="0 0 217 1035" fill="none" xmlns="http://www.w3.org/2000/svg">
<path d="M22.5 978.5C22.5 963.7 25.5 950.767 31.5 939.7C37.3667 928.5 45.6333 919.9 56.3 913.9C66.9667 907.9 79.1667 904.9 92.9 904.9C106.5 904.9 118.633 907.967 129.3 914.1C139.967 920.1 148.367 928.7 154.5 939.9C160.5 950.967 163.5 963.833 163.5 978.5V1034.3H22.5V978.5ZM128.9 981.5C128.9 970.033 125.767 961.033 119.5 954.5C113.233 947.967 104.367 944.7 92.9 944.7C81.3 944.7 72.3667 947.967 66.1 954.5C59.7 961.033 56.5 970.033 56.5 981.5V995.1H128.9V981.5ZM40.9 867.43C40.9 874.363 39.0333 879.963 35.3 884.23C31.4333 888.363 26.6333 890.43 20.9 890.43C15.0333 890.43 10.1667 888.363 6.3 884.23C2.43332 879.963 0.499989 874.363 0.499989 867.43C0.499989 860.63 2.43332 855.163 6.3 851.03C10.1667 846.763 15.0333 844.63 20.9 844.63C26.6333 844.63 31.4333 846.763 35.3 851.03C39.0333 855.163 40.9 860.63 40.9 867.43ZM51.3 848.03H163.5V887.23H51.3V848.03ZM164.9 777.906C164.9 788.04 163.233 797.106 159.9 805.106C156.433 812.973 151.767 819.24 145.9 823.906C139.9 828.44 133.167 830.973 125.7 831.506V793.506C129.3 792.973 132.1 791.306 134.1 788.506C136.1 785.706 137.1 782.24 137.1 778.106C137.1 774.906 136.433 772.373 135.1 770.506C133.767 768.64 132.033 767.706 129.9 767.706C127.1 767.706 125.033 769.24 123.7 772.306C122.367 775.373 120.9 780.44 119.3 787.506C117.7 795.506 115.9 802.173 113.9 807.506C111.9 812.84 108.633 817.506 104.1 821.506C99.5667 825.373 93.4333 827.306 85.7 827.306C79.0333 827.306 73.0333 825.506 67.7 821.906C62.2333 818.306 57.9 813.04 54.7 806.106C51.5 799.04 49.9 790.573 49.9 780.706C49.9 766.04 53.5 754.506 60.7 746.106C67.9 737.706 77.3667 732.84 89.1 731.506V766.906C85.5 767.573 82.7667 769.173 80.9 771.706C78.9 774.106 77.9 777.373 77.9 781.506C77.9 784.706 78.5 787.173 79.7 788.906C80.9 790.506 82.5667 791.306 84.7 791.306C87.3667 791.306 89.4333 789.773 90.9 786.706C92.2333 783.64 93.6333 778.706 95.1 771.906C96.8333 763.773 98.7667 757.04 100.9 751.706C103.033 746.24 106.5 741.506 111.3 737.506C115.967 733.373 122.367 731.306 130.5 731.306C137.033 731.306 142.9 733.24 148.1 737.106C153.3 740.84 157.433 746.24 160.5 753.306C163.433 760.24 164.9 768.44 164.9 777.906ZM107.3 718.434C95.7 718.434 85.5667 716.034 76.9 711.234C68.2333 706.434 61.5667 699.768 56.9 691.234C52.2333 682.568 49.9 672.701 49.9 661.634C49.9 647.368 53.8333 635.368 61.7 625.634C69.4333 615.901 80.3 609.634 94.3 606.834V648.434C86.9667 650.834 83.3 655.501 83.3 662.434C83.3 667.368 85.3667 671.301 89.5 674.234C93.5 677.034 99.4333 678.434 107.3 678.434C115.167 678.434 121.167 677.034 125.3 674.234C129.433 671.301 131.5 667.368 131.5 662.434C131.5 655.368 127.833 650.701 120.5 648.434V606.834C134.367 609.634 145.233 615.901 153.1 625.634C160.967 635.368 164.9 647.368 164.9 661.634C164.9 672.701 162.567 682.568 157.9 691.234C153.233 699.768 146.567 706.434 137.9 711.234C129.233 716.034 119.033 718.434 107.3 718.434ZM164.9 538.35C164.9 549.55 162.567 559.617 157.9 568.55C153.233 577.35 146.567 584.283 137.9 589.35C129.233 594.417 119.033 596.95 107.3 596.95C95.7 596.95 85.5667 594.417 76.9 589.35C68.2333 584.15 61.5667 577.15 56.9 568.35C52.2333 559.417 49.9 549.35 49.9 538.15C49.9 526.95 52.2333 516.95 56.9 508.15C61.5667 499.217 68.2333 492.217 76.9 487.15C85.5667 481.95 95.7 479.35 107.3 479.35C118.9 479.35 129.1 481.95 137.9 487.15C146.567 492.217 153.233 499.217 157.9 508.15C162.567 517.083 164.9 527.15 164.9 538.35ZM130.9 538.35C130.9 532.883 128.9 528.35 124.9 524.75C120.767 521.017 114.9 519.15 107.3 519.15C99.7 519.15 93.9 521.017 89.9 524.75C85.9 528.35 83.9 532.817 83.9 538.15C83.9 543.483 85.9 547.95 89.9 551.55C93.9 555.15 99.7 556.95 107.3 556.95C115.033 556.95 120.9 555.217 124.9 551.75C128.9 548.283 130.9 543.817 130.9 538.35ZM126.5 409.602L51.3 388.602V346.802L163.5 385.402V434.202L51.3 472.802V431.002L126.5 409.602ZM106.1 226.319C109.167 226.319 112.233 226.519 115.3 226.919L115.3 301.119C121.433 300.719 126.033 299.052 129.1 296.119C132.033 293.052 133.5 289.185 133.5 284.519C133.5 277.985 130.567 273.319 124.7 270.519L124.7 228.719C132.433 230.452 139.367 233.852 145.5 238.919C151.5 243.852 156.233 250.119 159.7 257.719C163.167 265.319 164.9 273.719 164.9 282.919C164.9 293.985 162.567 303.852 157.9 312.519C153.233 321.052 146.567 327.785 137.9 332.719C129.233 337.519 119.033 339.919 107.3 339.919C95.5667 339.919 85.4333 337.519 76.9 332.719C68.2333 327.919 61.5667 321.252 56.9 312.719C52.2333 304.052 49.9 294.119 49.9 282.919C49.9 271.852 52.1667 262.052 56.7 253.519C61.2333 244.985 67.7667 238.319 76.3 233.519C84.7 228.719 94.6333 226.319 106.1 226.319ZM96.3 266.319C91.5 266.319 87.7667 267.919 85.1 271.119C82.3 274.319 80.9 278.319 80.9 283.119C80.9 287.919 82.2333 291.852 84.9 294.919C87.4333 297.985 91.2333 299.985 96.3 300.919V266.319ZM71.1 171.077C64.7 166.677 59.6333 161.343 55.9 155.077C52.1667 148.81 50.3 142.077 50.3 134.877H92.1V145.877C92.1 154.41 93.7667 160.743 97.1 164.877C100.433 169.01 106.233 171.077 114.5 171.077H163.5V210.277H51.3L51.3 171.077H71.1ZM51.3 0.0234323L216.9 71.2234L216.9 113.823L158.7 87.0234L51.3 133.023V89.4234L114.9 65.8234L51.3 43.0234L51.3 0.0234323Z" fill="#033E4A"/>
</svg>
